<svg fill="none" height="64" viewBox="0 0 64 64" width="64" xmlns="http://www.w3.org/2000/svg" xmlns:xlink="http://www.w3.org/1999/xlink"><radialGradient id="a" cx="32.0001" cy="35.3289" gradientUnits="userSpaceOnUse" r="35.2795"><stop offset=".5155" stop-color="#ffb900"/><stop offset=".775" stop-color="#f95d8f"/><stop offset=".9898" stop-color="#f95353"/></radialGradient><radialGradient id="b" cx="31.9558" cy="35.0948" gradientUnits="userSpaceOnUse" r="35.359"><stop offset="0" stop-color="#ffb900"/><stop offset=".5958" stop-color="#f95d8f"/><stop offset=".9688" stop-color="#f95353"/></radialGradient><radialGradient id="c" cx="32.0444" cy="35.0649" gradientUnits="userSpaceOnUse" r="35.2881"><stop offset="0" stop-color="#ffb900"/><stop offset=".6091" stop-color="#f95d8f"/><stop offset=".9778" stop-color="#f95353"/></radialGradient><path d="m45.921 13.921c0 7.6838-6.2275 13.9209-13.9209 13.9209-7.6839 0-13.921-6.2371-13.921-13.9209 0-7.68387 6.2275-13.921 13.921-13.921 7.6838 0 13.9209 6.22754 13.9209 13.921z" fill="url(#a)"/><path d="m13.921 59.1617c7.6883 0 13.9209-6.2326 13.9209-13.9209 0-7.6884-6.2326-13.921-13.9209-13.921-7.68838 0-13.921 6.2326-13.921 13.921 0 7.6883 6.23262 13.9209 13.921 13.9209z" fill="url(#b)"/><path d="m50.0792 59.1617c7.6883 0 13.9209-6.2326 13.9209-13.9209 0-7.6884-6.2326-13.921-13.9209-13.921-7.6884 0-13.921 6.2326-13.921 13.921 0 7.6883 6.2326 13.9209 13.921 13.9209z" fill="url(#c)"/></svg>