<svg width="64" height="64" viewBox="0 0 64 64" fill="none" xmlns="http://www.w3.org/2000/svg">
<path d="M32 38C27.9625 38 26 36.0375 26 32C26 27.9625 27.9625 26 32 26C36.0375 26 38 27.9625 38 32C38 36.0375 36.0375 38 32 38Z" fill="#F7F5F2"/>
<path d="M20 34C18.6542 34 18 33.3458 18 32C18 30.6542 18.6542 30 20 30C21.3458 30 22 30.6542 22 32C22 33.3458 21.3458 34 20 34Z" fill="#F7F5F2"/>
<path d="M44 34C42.6542 34 42 33.3458 42 32C42 30.6542 42.6542 30 44 30C45.3458 30 46 30.6542 46 32C46 33.3458 45.3458 34 44 34Z" fill="#F7F5F2"/>
<path fill-rule="evenodd" clip-rule="evenodd" d="M11 48V16H53V48H11ZM41.8353 20C42.9951 22.8602 45.3696 24.4771 49 24.8922V39.1078C45.3696 39.5229 42.9951 41.1398 41.8353 44H22.1647C21.0049 41.1398 18.6304 39.5229 15 39.1078V24.8922C18.6304 24.4771 21.0049 22.8602 22.1647 20H41.8353Z" fill="#F7F5F2"/>
</svg>
