<svg width="96" height="96" viewBox="0 0 96 96" fill="none" xmlns="http://www.w3.org/2000/svg">
<path fill-rule="evenodd" clip-rule="evenodd" d="M25.1519 14.4622H69.8366L70.0707 17.2072L67.0816 17.4622C70.0707 17.2072 70.0708 17.2082 70.0709 17.2094L70.0712 17.2124L70.0719 17.2211L70.0741 17.2486L70.0815 17.3437L70.0932 17.5043C71.2353 17.6028 72.7068 17.8139 74.2213 18.268C75.8936 18.7695 77.8084 19.6236 79.3582 21.128C80.9798 22.7022 82.0664 24.8644 82.1538 27.6185C82.3245 32.9952 78.9681 36.7078 75.5922 39.148C72.7341 41.214 69.3476 42.7344 66.964 43.8045L66.6616 43.9403C65.6335 46.4843 64.3029 48.9183 62.5759 51.0309C59.713 54.5334 55.8108 57.0784 50.6943 57.7936V64.9552H58.2693C63.2398 64.9552 67.2693 68.9846 67.2693 73.9552V83.6962H28.1169V73.9552C28.1169 68.9846 32.1463 64.9552 37.1169 64.9552H44.6943V57.7938C39.5744 57.0795 35.6557 54.5376 32.7658 51.0446C31.0422 48.9613 29.7009 46.5641 28.6541 44.0561C28.4748 43.9752 28.2881 43.8914 28.0947 43.8046C25.7111 42.7345 22.3244 41.214 19.4663 39.148C16.0904 36.7078 12.734 32.9952 12.9047 27.6185C12.9921 24.8644 14.0787 22.7022 15.7003 21.128C17.2501 19.6236 19.1649 18.7695 20.8372 18.268C22.3339 17.8192 23.7886 17.6078 24.9249 17.5078C24.9281 17.4557 24.9309 17.4108 24.9334 17.3733L24.9398 17.2781L24.9418 17.2506L24.9427 17.2389C24.9428 17.2377 24.9428 17.2367 27.9344 17.4622L24.9428 17.2367L25.1519 14.4622ZM24.85 23.5482C24.1319 23.637 23.3372 23.7823 22.5606 24.0152C21.4126 24.3595 20.4915 24.8391 19.8794 25.4332C19.3393 25.9576 18.9382 26.6585 18.9017 27.8089C18.8244 30.2413 20.254 32.3141 22.9812 34.2854C24.0214 35.0373 25.146 35.7001 26.2877 36.3006C25.2864 31.6185 24.9429 27.0215 24.85 23.5482ZM68.9259 36.2186C69.8694 31.5682 70.1663 27.0064 70.2256 23.5504C70.9393 23.6393 71.7275 23.7842 72.4979 24.0152C73.646 24.3595 74.5671 24.8391 75.1791 25.4332C75.7192 25.9576 76.1203 26.6585 76.1568 27.8089C76.2341 30.2413 74.8045 32.3141 72.0773 34.2854C71.0842 35.0032 70.0143 35.6398 68.9259 36.2186ZM30.8266 20.4622C30.8165 21.2591 30.8182 22.2006 30.8444 23.2522C30.9293 26.6558 31.2701 31.136 32.2701 35.5696C33.2786 40.0409 34.9028 44.2152 37.3887 47.2199C39.781 50.1115 43.0182 51.9971 47.6943 51.9971C52.3685 51.9971 55.5762 50.1138 57.9304 47.2336C60.3805 44.2363 61.9621 40.0682 62.9261 35.5973C63.8817 31.1651 64.1781 26.6857 64.2292 23.282C64.2452 22.2173 64.2371 21.2654 64.2186 20.4622H30.8266ZM37.1169 70.9552C35.46 70.9552 34.1169 72.2984 34.1169 73.9552V77.6962H61.2693V73.9552C61.2693 72.2983 59.9261 70.9552 58.2693 70.9552H37.1169Z" fill="#F7F5F2"/>
</svg>
